<?xml version="1.0" encoding="UTF-8" standalone="no"?>
<svg
   xmlns:dc="http://purl.org/dc/elements/1.1/"
   xmlns:cc="http://creativecommons.org/ns#"
   xmlns:rdf="http://www.w3.org/1999/02/22-rdf-syntax-ns#"
   xmlns:svg="http://www.w3.org/2000/svg"
   xmlns="http://www.w3.org/2000/svg"
   xmlns:sodipodi="http://sodipodi.sourceforge.net/DTD/sodipodi-0.dtd"
   xmlns:inkscape="http://www.inkscape.org/namespaces/inkscape"
   width="1000"
   height="1000"
   viewBox="0 0 264.58333 264.58334"
   version="1.1"
   id="svg8"
   sodipodi:docname="favicon.svg"
   inkscape:version="1.0.1 (3bc2e813f5, 2020-09-07)">
  <defs
     id="defs2" />
  <sodipodi:namedview
     id="base"
     pagecolor="#333333"
     bordercolor="#666666"
     borderopacity="1.0"
     inkscape:pageopacity="0"
     inkscape:pageshadow="2"
     inkscape:zoom="0.35"
     inkscape:cx="400"
     inkscape:cy="560"
     inkscape:document-units="px"
     inkscape:current-layer="layer1"
     inkscape:document-rotation="0"
     showgrid="false"
     units="px"
     inkscape:pagecheckerboard="true"
     inkscape:showpageshadow="false"
     borderlayer="true"
     inkscape:window-width="2560"
     inkscape:window-height="1377"
     inkscape:window-x="1912"
     inkscape:window-y="-8"
     inkscape:window-maximized="1" />
  <metadata
     id="metadata5">
    <rdf:RDF>
      <cc:Work
         rdf:about="">
        <dc:format>image/svg+xml</dc:format>
        <dc:type
           rdf:resource="http://purl.org/dc/dcmitype/StillImage" />
        <dc:title></dc:title>
      </cc:Work>
    </rdf:RDF>
  </metadata>
  <g
     inkscape:label="Layer 1"
     inkscape:groupmode="layer"
     id="layer1">
    <rect
       style="fill:#ffffff;stroke-width:10.0766"
       id="rect830"
       width="264.58334"
       height="264.58334"
       x="0"
       y="0" />
    <g
       aria-label="$"
       id="text852"
       style="font-style:normal;font-weight:normal;font-size:50.8px;line-height:1.25;font-family:sans-serif;fill:#000000;fill-opacity:1;stroke:none;stroke-width:0.264583"
       transform="matrix(4.7713719,0,0,4.7713719,-734.73259,-623.03609)">
      <path
         d="m 182.71842,181.33526 h -2.48047 l -0.0248,-7.46621 q -2.60449,-0.0496 -5.20898,-0.59531 -2.60449,-0.57051 -5.23379,-1.68672 v -4.46485 q 2.53008,1.5875 5.10977,2.40606 2.60449,0.79375 5.35781,0.81855 v -11.31093 q -5.48184,-0.89297 -7.98711,-3.02618 -2.48047,-2.1332 -2.48047,-5.8539 0,-4.04317 2.70371,-6.37481 2.70371,-2.33164 7.76387,-2.6789 v -5.8291 h 2.48047 v 5.75468 q 2.30683,0.0992 4.46484,0.4961 2.15801,0.37207 4.2168,1.04179 v 4.34082 q -2.05879,-1.04179 -4.2416,-1.6123 -2.15801,-0.57051 -4.44004,-0.66973 v 10.5916 q 5.63066,0.86817 8.28476,3.10059 2.6541,2.23242 2.6541,6.10195 0,4.192 -2.82773,6.62285 -2.80293,2.40606 -8.11113,2.77813 z m -2.48047,-26.56582 v -10.16992 q -2.87735,0.32246 -4.39043,1.63711 -1.51309,1.31465 -1.51309,3.49746 0,2.1332 1.38907,3.32383 1.41386,1.19062 4.51445,1.71152 z m 2.48047,4.7625 v 10.74043 q 3.15019,-0.42168 4.73769,-1.78594 1.61231,-1.36426 1.61231,-3.59668 0,-2.18281 -1.53789,-3.47265 -1.51309,-1.28985 -4.81211,-1.88516 z"
         style="font-size:50.8px;stroke-width:0.264583"
         id="path854" />
    </g>
    <g
       aria-label="🚫"
       id="text834"
       style="font-style:normal;font-weight:normal;font-size:50.8px;line-height:1.25;font-family:sans-serif;fill:#ff0000;fill-opacity:1;stroke:none;stroke-width:0.264583"
       transform="matrix(4.7713719,0,0,4.7713719,-734.73259,-623.03609)">
      <path
         d="m 181.71383,133.35059 q 3.44785,0 6.62285,0.89297 3.19981,0.89296 5.95313,2.53007 2.77812,1.61231 5.06015,3.89434 2.28203,2.28203 3.89434,5.06016 1.63711,2.75332 2.53008,5.95312 0.89297,3.175 0.89297,6.62285 0,3.44785 -0.89297,6.64766 -0.89297,3.175 -2.53008,5.95312 -1.61231,2.75332 -3.89434,5.03535 -2.28203,2.28204 -5.06015,3.89434 -2.75332,1.63711 -5.95313,2.53008 -3.175,0.89297 -6.62285,0.89297 -3.44785,0 -6.64766,-0.89297 -3.175,-0.89297 -5.95312,-2.53008 -2.75332,-1.6123 -5.03535,-3.89434 -2.28203,-2.28203 -3.91914,-5.03535 -1.61231,-2.77812 -2.50528,-5.95312 -0.89297,-3.19981 -0.89297,-6.64766 0,-3.44785 0.89297,-6.62285 0.89297,-3.1998 2.50528,-5.95312 1.63711,-2.77813 3.91914,-5.06016 2.28203,-2.28203 5.03535,-3.89434 2.77812,-1.63711 5.95312,-2.53007 3.19981,-0.89297 6.64766,-0.89297 z m -21.40644,24.95351 q 0,2.95176 0.76894,5.68028 0.76895,2.72851 2.15801,5.10976 1.38906,2.38125 3.34863,4.34082 1.95957,1.95957 4.34082,3.34863 2.38125,1.38907 5.10977,2.15801 2.72851,0.76895 5.68027,0.76895 3.81992,0 7.34219,-1.31465 3.54707,-1.28985 6.44922,-3.77031 L 165.39235,144.5127 q -2.48047,2.90214 -3.79512,6.44921 -1.28984,3.52227 -1.28984,7.34219 z m 37.72792,13.79141 q 2.48047,-2.92696 3.77032,-6.42442 1.28984,-3.52226 1.28984,-7.36699 0,-2.95176 -0.76894,-5.68027 -0.76895,-2.72852 -2.15801,-5.10977 -1.38907,-2.38125 -3.34864,-4.31601 -1.93476,-1.95957 -4.31601,-3.34864 -2.38125,-1.38906 -5.10977,-2.158 -2.72851,-0.76895 -5.68027,-0.76895 -3.84473,0 -7.36699,1.28985 -3.49746,1.28984 -6.42442,3.77031 z"
         style="font-size:50.8px;fill:#ff0000;stroke-width:0.264583"
         id="path857" />
    </g>
  </g>
</svg>
